<svg width="69" height="45" fill="none" xmlns="http://www.w3.org/2000/svg"><path d="M8.122 15.106a1 1 0 0 1 1.756 0l1.082 1.98a1 1 0 0 0 1.05.506l2.224-.388a1 1 0 0 1 1.094 1.372l-.874 2.082a1 1 0 0 0 .26 1.135l1.69 1.497a1 1 0 0 1-.39 1.71l-2.173.616a1 1 0 0 0-.726.91l-.116 2.255a1 1 0 0 1-1.581.762l-1.835-1.316a1 1 0 0 0-1.166 0l-1.835 1.316a1 1 0 0 1-1.58-.762l-.117-2.255a1 1 0 0 0-.726-.91L1.986 25a1 1 0 0 1-.39-1.711l1.69-1.497a1 1 0 0 0 .26-1.135l-.874-2.082a1 1 0 0 1 1.094-1.372l2.224.388a1 1 0 0 0 1.05-.505l1.082-1.981Z" fill="#149BFC"/><path d="M21.435 29.5h9.04v-2.209H24.07V14.954h-2.635V29.5Zm15.973.213c3.196 0 5.227-2.251 5.227-5.625 0-3.38-2.031-5.64-5.227-5.64s-5.228 2.26-5.228 5.64c0 3.374 2.032 5.625 5.228 5.625Zm.014-2.06c-1.769 0-2.635-1.576-2.635-3.572s.866-3.594 2.635-3.594c1.74 0 2.606 1.598 2.606 3.594 0 1.996-.866 3.572-2.606 3.572Zm12.14 6.165c2.947 0 5.12-1.35 5.12-4.14V18.59h-2.535v1.804h-.142c-.391-.788-1.208-1.946-3.133-1.946-2.52 0-4.502 1.974-4.502 5.56 0 3.56 1.981 5.335 4.495 5.335 1.868 0 2.742-1.002 3.14-1.804h.127v2.067c0 1.605-1.065 2.265-2.528 2.265-1.548 0-2.23-.731-2.543-1.37l-2.315.56c.469 1.527 2.038 2.756 4.815 2.756Zm.02-6.491c-1.697 0-2.592-1.321-2.592-3.331 0-1.982.881-3.438 2.593-3.438 1.655 0 2.564 1.371 2.564 3.438 0 2.08-.924 3.33-2.564 3.33Zm12.494 2.386c3.196 0 5.227-2.251 5.227-5.625 0-3.38-2.031-5.64-5.227-5.64s-5.228 2.26-5.228 5.64c0 3.374 2.032 5.625 5.228 5.625Zm.014-2.06c-1.769 0-2.635-1.576-2.635-3.572s.866-3.594 2.635-3.594c1.74 0 2.606 1.598 2.606 3.594 0 1.996-.866 3.572-2.606 3.572Z" fill="#000"/></svg>
